<?xml version="1.0" standalone="no"?>
<!DOCTYPE svg PUBLIC "-//W3C//DTD SVG 20010904//EN"
 "http://www.w3.org/TR/2001/REC-SVG-20010904/DTD/svg10.dtd">
<svg version="1.0" xmlns="http://www.w3.org/2000/svg"
 width="300.000000pt" height="300.000000pt" viewBox="0 0 300.000000 300.000000"
 preserveAspectRatio="xMidYMid meet">
<metadata>
Created by potrace 1.10, written by Peter Selinger 2001-2011
</metadata>
<g transform="translate(0.000000,300.000000) scale(0.100000,-0.100000)"
fill="#F5F2E6" stroke="none">
<path d="M1415 2413 c-77 -40 -109 -99 -103 -189 5 -76 38 -126 108 -161 52
-27 96 -29 148 -7 123 51 164 197 85 302 -50 66 -166 93 -238 55z m170 -42
c43 -24 77 -95 72 -148 -17 -161 -234 -193 -299 -45 -62 140 89 269 227 193z"/>
<path d="M846 2057 c-23 -23 -26 -34 -26 -99 1 -98 14 -114 105 -133 108 -23
187 -67 282 -158 46 -44 100 -107 119 -139 l36 -59 -34 -56 c-18 -31 -69 -93
-113 -138 -91 -94 -186 -148 -293 -166 -85 -15 -102 -37 -102 -131 0 -60 3
-72 25 -93 28 -29 52 -31 150 -10 151 32 323 143 440 283 32 40 62 72 66 72 4
0 26 -25 49 -55 130 -169 332 -290 517 -311 57 -6 63 -5 87 19 23 23 26 34 26
100 0 92 -14 108 -117 130 -99 22 -180 66 -258 138 -77 73 -167 201 -158 227
14 39 97 144 162 204 80 74 171 123 266 143 94 19 107 37 103 138 -3 74 -5 81
-31 101 -27 20 -28 20 -114 3 -192 -40 -348 -143 -501 -332 l-32 -40 -22 30
c-38 51 -161 175 -208 210 -97 71 -232 126 -343 140 -51 7 -58 5 -81 -18z
m137 -33 c180 -40 368 -176 479 -346 17 -27 34 -48 38 -48 4 0 24 26 46 57 58
86 181 202 263 251 84 49 194 89 274 98 l57 7 0 -87 0 -86 -35 0 c-50 0 -149
-35 -220 -78 -78 -48 -177 -148 -243 -245 l-52 -78 36 -57 c128 -201 272 -312
445 -343 l69 -12 0 -80 0 -80 -62 7 c-150 17 -306 95 -419 208 -50 50 -140
161 -153 190 -4 10 -7 10 -12 1 -16 -35 -110 -146 -171 -204 -119 -112 -256
-178 -400 -195 l-63 -7 0 80 0 80 71 12 c160 29 302 134 423 313 l58 86 -62
91 c-102 148 -218 244 -356 291 -31 11 -74 20 -96 20 l-38 0 0 85 c0 84 0 85
26 85 14 0 57 -7 97 -16z"/>
</g>
</svg>


